<svg width="1171" height="1168" viewBox="0 0 1171 1168" fill="none" xmlns="http://www.w3.org/2000/svg">
<path d="M275 585.962C275 596.224 275.457 606.41 276.447 616.596C277.513 626.706 278.96 636.815 281.015 646.849C282.995 656.883 285.432 666.765 288.402 676.571C291.371 686.301 294.874 695.954 298.757 705.38C302.717 714.806 307.057 724.004 311.854 733.049C316.728 742.095 321.982 750.837 327.616 759.274C333.327 767.788 339.419 775.997 345.891 783.903C352.44 791.808 359.293 799.334 366.527 806.555C373.76 813.776 381.299 820.694 389.218 827.155C397.137 833.616 405.361 839.697 413.889 845.398C422.417 851.099 431.174 856.344 440.159 861.133C449.22 865.922 458.434 870.331 467.876 874.208C477.394 878.16 486.988 881.581 496.811 884.546C506.558 887.51 516.533 890.019 526.508 891.995C536.559 893.971 546.686 895.492 556.89 896.48C567.093 897.468 577.297 898 587.5 898C597.78 898 607.983 897.468 618.11 896.48C628.314 895.492 638.441 893.971 648.492 891.995C658.543 890.019 668.442 887.51 678.265 884.546C688.012 881.581 697.682 878.16 707.124 874.208C716.566 870.331 725.78 865.922 734.841 861.133C743.826 856.344 752.659 851.099 761.111 845.398C769.639 839.697 777.863 833.616 785.782 827.155C793.701 820.694 801.24 813.776 808.473 806.555C815.707 799.334 822.636 791.808 829.109 783.903C835.581 775.997 841.673 767.788 847.384 759.274C853.018 750.837 858.272 742.095 863.146 733.049C867.943 724.004 872.359 714.806 876.243 705.38C880.126 695.954 883.629 686.301 886.598 676.571C889.568 666.765 892.005 656.883 894.061 646.849C896.04 636.815 897.563 626.706 898.553 616.596C899.543 606.41 900 596.224 900 585.962C900 575.776 899.543 565.59 898.553 555.404C897.563 545.218 896.04 535.109 894.061 525.075C892.005 515.117 889.568 505.159 886.598 495.429C883.629 485.623 880.126 476.046 876.243 466.62C872.359 457.118 867.943 447.92 863.146 438.875C858.272 429.905 853.018 421.163 847.384 412.65C841.673 404.136 835.581 395.927 829.109 388.021C822.636 380.116 815.707 372.59 808.473 365.369C801.24 358.148 793.701 351.306 785.782 344.769C777.863 338.308 769.639 332.227 761.111 326.602C752.659 320.901 743.826 315.656 734.841 310.791C725.78 306.002 716.566 301.669 707.124 297.716C697.682 293.84 688.012 290.419 678.265 287.455C668.442 284.49 658.543 281.981 648.492 280.005C638.441 277.953 628.314 276.508 618.11 275.52C607.983 274.456 597.78 274 587.5 274C577.297 274 567.093 274.456 556.89 275.52C546.686 276.508 536.559 277.953 526.508 280.005C516.533 281.981 506.558 284.49 496.811 287.455C486.988 290.419 477.394 293.84 467.876 297.716C458.434 301.669 449.22 306.002 440.159 310.791C431.174 315.656 422.417 320.901 413.889 326.602C405.361 332.227 397.137 338.308 389.218 344.769C381.299 351.306 373.76 358.148 366.527 365.369C359.293 372.59 352.44 380.116 345.891 388.021C339.419 395.927 333.327 404.136 327.616 412.65C321.982 421.163 316.728 429.905 311.854 438.875C307.057 447.92 302.717 457.118 298.757 466.62C294.874 476.046 291.371 485.623 288.402 495.429C285.432 505.159 282.995 515.117 281.015 525.075C278.96 535.109 277.513 545.218 276.447 555.404C275.457 565.59 275 575.776 275 585.962ZM700.195 585.962C700.195 593.335 699.433 600.633 698.063 607.93C696.616 615.151 694.484 622.145 691.591 628.986C688.773 635.827 685.347 642.288 681.235 648.446C677.123 654.527 672.478 660.228 667.224 665.473C661.97 670.642 656.335 675.355 650.168 679.383C644 683.488 637.527 686.985 630.674 689.797C623.897 692.61 616.816 694.738 609.582 696.182C602.348 697.627 595.038 698.387 587.652 698.387C580.266 698.387 572.88 697.627 565.646 696.182C558.413 694.814 551.407 692.686 544.554 689.797C537.701 686.985 531.229 683.564 525.061 679.459C518.969 675.355 513.258 670.718 508.004 665.473C502.827 660.304 498.105 654.603 493.994 648.446C489.882 642.364 486.455 635.827 483.638 629.062C480.744 622.221 478.612 615.227 477.166 607.93C475.719 600.709 475.034 593.411 475.034 586.038C475.034 578.665 475.719 571.367 477.166 564.146C478.612 556.849 480.744 549.855 483.562 543.014C486.379 536.249 489.806 529.712 493.918 523.63C498.029 517.473 502.674 511.772 507.928 506.527C513.182 501.358 518.817 496.645 524.985 492.541C531.153 488.436 537.625 485.015 544.402 482.203C551.255 479.314 558.336 477.186 565.57 475.742C572.804 474.297 580.114 473.613 587.5 473.613C594.886 473.613 602.196 474.297 609.506 475.742C616.74 477.186 623.745 479.314 630.598 482.127C637.451 484.939 643.924 488.436 650.091 492.541C656.183 496.645 661.894 501.282 667.148 506.527C672.326 511.696 677.047 517.397 681.159 523.554C685.194 529.636 688.697 536.173 691.514 542.938C694.332 549.779 696.464 556.849 697.911 564.07C699.357 571.291 700.119 578.589 700.119 585.962H700.195Z" fill="#7DE7EB"/>
<mask id="mask0_0_1" style="mask-type:luminance" maskUnits="userSpaceOnUse" x="0" y="0" width="531" height="529">
<path d="M0 0H530.686V528.413H0V0Z" fill="white"/>
</mask>
<g mask="url(#mask0_0_1)">
<path d="M158.954 514.118C162.614 492.066 168.026 470.394 175.116 449.102C182.206 427.81 190.821 407.279 201.113 387.356C211.405 367.433 223.146 348.423 236.411 330.325C249.676 312.227 264.237 295.27 280.095 279.377C295.952 263.56 313.029 249.036 331.173 235.805C349.318 222.574 368.377 210.864 388.351 200.598C408.325 190.332 428.909 181.74 450.256 174.668C471.602 167.596 493.33 162.197 515.438 158.547V0C482.885 3.95417 450.866 10.5698 419.456 19.8469C387.97 29.1239 357.475 40.9104 327.972 55.2062C298.544 69.5781 270.413 86.2312 243.73 105.242C216.97 124.252 192.041 145.316 168.865 168.432C145.613 191.549 124.495 216.415 105.512 243.105C86.4527 269.72 69.7568 297.779 55.3481 327.207C41.0155 356.559 29.1988 386.976 19.8979 418.381C10.5969 449.71 3.96432 481.648 0 514.118H158.954Z" fill="#7DE7EB"/>
</g>
<mask id="mask1_0_1" style="mask-type:luminance" maskUnits="userSpaceOnUse" x="0" y="645" width="531" height="523">
<path d="M0 645.214H530.686V1168H0V645.214Z" fill="white"/>
</mask>
<g mask="url(#mask1_0_1)">
<path d="M515.438 1011.96C493.33 1008.24 471.602 1002.84 450.256 995.841C428.909 988.77 408.325 980.101 388.351 969.835C368.377 959.57 349.318 947.859 331.173 934.628C313.029 921.473 295.952 906.949 280.095 891.056C264.237 875.239 249.676 858.282 236.411 840.184C223.146 822.086 211.405 803.076 201.113 783.153C190.821 763.23 182.206 742.623 175.116 721.331C168.026 700.115 162.614 678.443 158.954 656.315H0C3.96432 688.785 10.5969 720.723 19.8979 752.128C29.1988 783.457 41.0155 813.874 55.3481 843.302C69.7568 872.73 86.4527 900.713 105.512 927.404C124.495 954.018 145.613 978.884 168.865 1002.08C192.041 1025.19 216.97 1046.26 243.73 1065.27C270.413 1084.2 298.544 1100.93 327.972 1115.23C357.475 1129.52 387.97 1141.39 419.456 1150.59C450.866 1159.86 482.885 1166.48 515.438 1170.43V1011.96Z" fill="#7DE7EB"/>
</g>
<mask id="mask2_0_1" style="mask-type:luminance" maskUnits="userSpaceOnUse" x="647" y="645" width="524" height="523">
<path d="M647.786 645.214H1171V1168H647.786V645.214Z" fill="white"/>
</mask>
<g mask="url(#mask2_0_1)">
<path d="M658.001 1011.96V1170.43C694.671 1166.02 730.655 1158.27 765.8 1147.09C801.022 1135.91 834.947 1121.61 867.424 1104.05C899.978 1086.56 930.549 1066.18 959.214 1042.99C987.879 1019.72 1014.18 994.016 1037.97 965.881L1173.44 1097.59V656.315H1014.49C1010.83 678.443 1005.41 700.115 998.323 721.331C991.309 742.623 982.618 763.23 972.326 783.153C962.034 803.076 950.294 822.086 937.029 840.184C923.764 858.282 909.202 875.239 893.345 891.056C877.488 906.949 860.487 921.473 842.342 934.628C824.198 947.859 805.139 959.57 785.165 969.835C765.191 980.101 744.53 988.77 723.184 995.841C701.914 1002.84 680.11 1008.24 658.001 1011.96Z" fill="#7DE7EB"/>
</g>
<mask id="mask3_0_1" style="mask-type:luminance" maskUnits="userSpaceOnUse" x="647" y="0" width="524" height="529">
<path d="M647.786 0H1171V528.413H647.786V0Z" fill="white"/>
</mask>
<g mask="url(#mask3_0_1)">
<path d="M658.001 -0.000152588V158.547C680.11 162.197 701.914 167.596 723.184 174.668C744.53 181.739 765.191 190.332 785.165 200.598C805.139 210.863 824.198 222.574 842.342 235.805C860.487 249.036 877.488 263.56 893.345 279.377C909.202 295.27 923.764 312.227 937.029 330.325C950.294 348.423 962.034 367.433 972.326 387.356C982.618 407.279 991.309 427.81 998.323 449.102C1005.41 470.394 1010.83 492.065 1014.49 514.118H1173.44V72.9238L1037.97 204.628C1014.18 176.416 987.879 150.714 959.214 127.522C930.549 104.253 899.978 83.8738 867.424 66.3842C834.947 48.8946 801.022 34.5227 765.8 23.3446C730.655 12.2425 694.671 4.41025 658.001 -0.000152588Z" fill="#7DE7EB"/>
</g>
</svg>
