<svg width="268" height="215" viewBox="0 0 268 215" fill="none" xmlns="http://www.w3.org/2000/svg">
<path d="M268 96.4251C266.95 98.8307 265.839 101.221 264.882 103.657C257.689 121.824 250.512 139.991 243.335 158.157C242.98 159.047 242.594 159.922 242.146 161C230.369 156.236 218.777 151.55 207 146.785C207.509 146.036 207.926 145.364 208.374 144.755C221.787 126.682 235.246 108.625 248.613 90.505C249.771 88.9429 250.682 88.6305 252.457 89.4115C257.581 91.6765 262.814 93.7384 267.985 95.8784C268 96.0659 268 96.2533 268 96.4251Z" fill="white"/>
<path d="M78.5239 0C134.113 22.7605 189.457 45.3953 245 68.1244C238.883 76.4438 232.935 84.559 226.971 92.6743C212.223 112.766 197.444 132.827 182.742 152.95C181.577 154.536 180.672 154.787 178.894 154.065C160.206 146.326 141.472 138.698 122.738 131.022C122.017 130.739 121.312 130.441 120.3 130.033C118.43 134.789 116.82 139.561 114.689 144.082C112.742 148.21 112.589 151.098 115.839 155.195C122.216 163.169 122.569 172.571 117.985 181.785C113.263 191.235 105.307 195.991 95.081 195.709C84.7021 195.41 77.1748 189.995 72.8668 180.231C72.2076 178.725 71.4717 178.112 69.8007 178.144C62.3346 178.238 54.8533 178.175 47.0653 178.175C47.0653 190.513 47.0653 202.678 47.0653 215C31.2286 215 15.6986 215 0 215C0 185.678 0 156.388 0 126.909C15.5607 126.909 31.0907 126.909 46.9426 126.909C46.9426 138.556 46.9426 150.188 46.9426 162.149C48.583 162.149 49.9474 162.149 51.3119 162.149C57.4901 162.149 63.6837 162.102 69.862 162.196C71.3644 162.211 72.131 161.756 72.7749 160.296C77.1594 150.203 84.8708 144.976 95.6176 144.552C97.2733 144.49 98.0245 144.003 98.6224 142.433C100.876 136.374 103.268 130.394 105.751 124.068C83.9509 115.152 62.35 106.299 40.5497 97.3677C53.1822 64.9066 65.7841 32.6338 78.5239 0ZM162.291 120.144C167.212 122.153 171.919 124.068 176.794 126.062C178.771 120.96 180.642 116.157 182.558 111.228C177.545 109.187 172.915 107.304 168.071 105.326C166.108 110.349 164.223 115.168 162.291 120.144Z" fill="white"/>
</svg>
