<svg width="2031" height="463" viewBox="0 0 2031 463" fill="none" xmlns="http://www.w3.org/2000/svg">
<path d="M105 232.485C105 236.547 105.174 240.579 105.551 244.611C105.957 248.613 106.508 252.614 107.291 256.586C108.045 260.558 108.972 264.469 110.103 268.351C111.234 272.202 112.568 276.024 114.047 279.755C115.555 283.486 117.207 287.126 119.034 290.707C120.89 294.288 122.891 297.748 125.036 301.088C127.211 304.458 129.531 307.707 131.995 310.837C134.489 313.966 137.099 316.945 139.853 319.803C142.608 322.661 145.479 325.4 148.494 327.957C151.51 330.515 154.641 332.922 157.889 335.178C161.136 337.435 164.471 339.511 167.893 341.407C171.343 343.302 174.852 345.048 178.447 346.582C182.072 348.147 185.725 349.501 189.466 350.674C193.177 351.848 196.976 352.841 200.774 353.623C204.602 354.405 208.458 355.007 212.344 355.398C216.229 355.789 220.115 356 224 356C227.914 356 231.8 355.789 235.656 355.398C239.542 355.007 243.398 354.405 247.226 353.623C251.053 352.841 254.823 351.848 258.563 350.674C262.275 349.501 265.957 348.147 269.553 346.582C273.148 345.048 276.657 343.302 280.107 341.407C283.529 339.511 286.893 337.435 290.111 335.178C293.359 332.922 296.49 330.515 299.506 327.957C302.521 325.4 305.392 322.661 308.147 319.803C310.901 316.945 313.54 313.966 316.005 310.837C318.469 307.707 320.789 304.458 322.964 301.088C325.109 297.748 327.11 294.288 328.966 290.707C330.793 287.126 332.474 283.486 333.953 279.755C335.432 276.024 336.766 272.202 337.897 268.351C339.028 264.469 339.955 260.558 340.738 256.586C341.492 252.614 342.072 248.613 342.449 244.611C342.826 240.579 343 236.547 343 232.485C343 228.453 342.826 224.421 342.449 220.389C342.072 216.357 341.492 212.355 340.738 208.384C339.955 204.442 339.028 200.5 337.897 196.649C336.766 192.768 335.432 188.976 333.953 185.245C332.474 181.484 330.793 177.843 328.966 174.263C327.11 170.712 325.109 167.252 322.964 163.882C320.789 160.512 318.469 157.263 316.005 154.133C313.54 151.004 310.901 148.025 308.147 145.167C305.392 142.308 302.521 139.6 299.506 137.013C296.49 134.455 293.359 132.048 290.111 129.822C286.893 127.565 283.529 125.489 280.107 123.563C276.657 121.667 273.148 119.952 269.553 118.388C265.957 116.853 262.275 115.499 258.563 114.326C254.823 113.152 251.053 112.159 247.226 111.377C243.398 110.565 239.542 109.993 235.656 109.602C231.8 109.181 227.914 109 224 109C220.115 109 216.229 109.181 212.344 109.602C208.458 109.993 204.602 110.565 200.774 111.377C196.976 112.159 193.177 113.152 189.466 114.326C185.725 115.499 182.072 116.853 178.447 118.388C174.852 119.952 171.343 121.667 167.893 123.563C164.471 125.489 161.136 127.565 157.889 129.822C154.641 132.048 151.51 134.455 148.494 137.013C145.479 139.6 142.608 142.308 139.853 145.167C137.099 148.025 134.489 151.004 131.995 154.133C129.531 157.263 127.211 160.512 125.036 163.882C122.891 167.252 120.89 170.712 119.034 174.263C117.207 177.843 115.555 181.484 114.047 185.245C112.568 188.976 111.234 192.768 110.103 196.649C108.972 200.5 108.045 204.442 107.291 208.384C106.508 212.355 105.957 216.357 105.551 220.389C105.174 224.421 105 228.453 105 232.485ZM266.914 232.485C266.914 235.404 266.624 238.292 266.102 241.181C265.551 244.039 264.74 246.807 263.638 249.515C262.565 252.223 261.26 254.781 259.694 257.218C258.128 259.625 256.36 261.882 254.359 263.958C252.358 266.004 250.212 267.87 247.864 269.464C245.515 271.089 243.05 272.473 240.441 273.586C237.86 274.7 235.163 275.542 232.409 276.114C229.654 276.686 226.871 276.986 224.058 276.986C221.245 276.986 218.433 276.686 215.678 276.114C212.923 275.572 210.256 274.73 207.646 273.586C205.037 272.473 202.572 271.119 200.223 269.494C197.904 267.87 195.729 266.034 193.728 263.958C191.756 261.912 189.959 259.655 188.393 257.218C186.827 254.811 185.522 252.223 184.449 249.545C183.347 246.837 182.536 244.069 181.985 241.181C181.434 238.322 181.173 235.434 181.173 232.515C181.173 229.596 181.434 226.708 181.985 223.849C182.536 220.961 183.347 218.193 184.42 215.485C185.493 212.807 186.798 210.219 188.364 207.812C189.93 205.375 191.698 203.118 193.699 201.042C195.7 198.996 197.846 197.13 200.194 195.506C202.543 193.881 205.008 192.527 207.588 191.414C210.198 190.27 212.894 189.428 215.649 188.856C218.404 188.284 221.187 188.014 224 188.014C226.813 188.014 229.596 188.284 232.38 188.856C235.135 189.428 237.802 190.27 240.412 191.383C243.021 192.497 245.486 193.881 247.835 195.506C250.154 197.13 252.329 198.966 254.33 201.042C256.302 203.088 258.099 205.345 259.665 207.782C261.202 210.189 262.536 212.777 263.609 215.455C264.682 218.163 265.493 220.961 266.044 223.819C266.595 226.678 266.885 229.566 266.885 232.485H266.914Z" fill="#7DE7EB"/>
<mask id="mask0_0_1" style="mask-type:luminance" maskUnits="userSpaceOnUse" x="0" y="0" width="203" height="210">
<path d="M0.473969 0.472412H202.488V209.724H0.473969V0.472412Z" fill="white"/>
</mask>
<g mask="url(#mask0_0_1)">
<path d="M60.9824 204.063C62.3754 195.33 64.4359 186.748 67.1348 178.317C69.8338 169.885 73.1131 161.755 77.0309 153.865C80.9487 145.976 85.4179 138.448 90.4676 131.281C95.5172 124.114 101.06 117.399 107.097 111.106C113.133 104.842 119.634 99.0908 126.54 93.8512C133.447 88.6116 140.703 83.9743 148.306 79.9091C155.91 75.8439 163.745 72.4412 171.871 69.6408C179.997 66.8403 188.268 64.7023 196.684 63.2569V0.472412C184.292 2.03826 172.103 4.65805 160.147 8.33177C148.161 12.0055 136.553 16.6729 125.322 22.3341C114.12 28.0253 103.411 34.62 93.2536 42.1481C83.0673 49.6762 73.5774 58.0174 64.7551 67.1715C55.9038 76.3257 47.865 86.1725 40.6388 96.742C33.3836 107.281 27.028 118.393 21.5431 130.046C16.0872 141.67 11.589 153.715 8.04841 166.151C4.50786 178.558 1.98305 191.205 0.473969 204.063H60.9824Z" fill="#7DE7EB"/>
</g>
<mask id="mask1_0_1" style="mask-type:luminance" maskUnits="userSpaceOnUse" x="0" y="255" width="203" height="208">
<path d="M0.473969 255.977H202.488V463H0.473969V255.977Z" fill="white"/>
</mask>
<g mask="url(#mask1_0_1)">
<path d="M196.684 401.209C188.268 399.734 179.997 397.596 171.871 394.825C163.745 392.025 155.91 388.592 148.306 384.527C140.703 380.462 133.447 375.824 126.54 370.585C119.634 365.375 113.133 359.624 107.097 353.33C101.06 347.067 95.5172 340.352 90.4676 333.185C85.4179 326.018 80.9487 318.49 77.0309 310.601C73.1131 302.711 69.8338 294.551 67.1348 286.119C64.4359 277.718 62.3754 269.136 60.9824 260.373H0.473969C1.98305 273.231 4.50786 285.878 8.04841 298.315C11.589 310.721 16.0872 322.766 21.5431 334.42C27.028 346.073 33.3836 357.155 40.6388 367.724C47.865 378.263 55.9038 388.11 64.7551 397.294C73.5774 406.449 83.0673 414.79 93.2536 422.318C103.411 429.816 114.12 436.441 125.322 442.102C136.553 447.763 148.161 452.461 160.147 456.104C172.103 459.778 184.292 462.398 196.684 463.963V401.209Z" fill="#7DE7EB"/>
</g>
<mask id="mask2_0_1" style="mask-type:luminance" maskUnits="userSpaceOnUse" x="247" y="255" width="200" height="208">
<path d="M247.064 255.977H446.234V463H247.064V255.977Z" fill="white"/>
</mask>
<g mask="url(#mask2_0_1)">
<path d="M250.953 401.209V463.963C264.912 462.217 278.61 459.145 291.988 454.719C305.396 450.292 318.31 444.631 330.673 437.675C343.065 430.749 354.702 422.679 365.614 413.495C376.526 404.281 386.538 394.103 395.593 382.961L447.163 435.116V260.373H386.654C385.261 269.136 383.201 277.718 380.502 286.119C377.832 294.551 374.523 302.711 370.606 310.601C366.688 318.49 362.219 326.018 357.169 333.185C352.119 340.352 346.576 347.067 340.54 353.33C334.504 359.624 328.032 365.375 321.125 370.585C314.218 375.824 306.963 380.462 299.36 384.527C291.756 388.592 283.891 392.025 275.766 394.825C267.669 397.596 259.369 399.734 250.953 401.209Z" fill="#7DE7EB"/>
</g>
<mask id="mask3_0_1" style="mask-type:luminance" maskUnits="userSpaceOnUse" x="247" y="0" width="200" height="210">
<path d="M247.064 0.472412H446.234V209.724H247.064V0.472412Z" fill="white"/>
</mask>
<g mask="url(#mask3_0_1)">
<path d="M250.953 0.472351V63.2569C259.369 64.7023 267.669 66.8402 275.766 69.6407C283.891 72.4412 291.756 75.8439 299.36 79.9091C306.963 83.9742 314.218 88.6116 321.125 93.8511C328.032 99.0907 334.504 104.842 340.54 111.106C346.576 117.399 352.119 124.114 357.169 131.281C362.219 138.448 366.688 145.976 370.606 153.865C374.523 161.755 377.832 169.885 380.502 178.317C383.201 186.748 385.261 195.33 386.654 204.063H447.163V29.3502L395.593 81.505C386.538 70.3333 376.526 60.1553 365.614 50.971C354.702 41.7566 343.065 33.6864 330.673 26.7605C318.31 19.8347 305.396 14.1434 291.988 9.71688C278.61 5.32046 264.912 2.21887 250.953 0.472351Z" fill="#7DE7EB"/>
</g>
<path d="M675.439 257.902C732.146 257.902 776.228 222.069 787.024 167.686H736.47C727.531 193.281 704.721 209.602 676.368 209.602C639.685 209.602 613.77 181.778 613.77 141.458C613.77 101.167 639.975 73.3431 676.658 73.3431C704.082 73.3431 726.603 88.7005 734.932 113.332H785.486C773.152 59.5817 729.998 25.0427 675.12 25.0427C609.765 25.0427 563.854 73.042 563.854 141.458C563.854 209.903 609.765 257.902 675.439 257.902Z" fill="white"/>
<path d="M824.599 253.416H876.982L891.463 214.721H977.162L991.643 253.416H1044.05L958.356 29.5295H910.269L824.599 253.416ZM904.116 174.732L934.327 92.8561L964.828 174.732H904.116Z" fill="white"/>
<path d="M1095.19 253.416H1143.89V118.452L1196.3 198.069H1230.19L1282.61 118.753V253.416H1331.3V29.5295H1290.01L1213.57 145.643L1136.81 29.5295H1095.19V253.416Z" fill="white"/>
<path d="M1457.38 253.416H1506.36V77.1976H1574.79V29.5295H1388.94V77.1976H1457.38V253.416Z" fill="#7DE7EB"/>
<path d="M1632.41 253.416H1777.61V210.234H1681.11V161.302H1765.88V118.753H1681.11V72.3796H1774.21V29.5295H1632.41V253.416Z" fill="#7DE7EB"/>
<path d="M1841.69 253.416H1890.7V162.898H1916.59C1920.6 162.898 1923.99 162.898 1927.71 162.597L1973.94 253.416H2030.96L1972.69 143.716C1981.34 135.074 1987.81 123.872 1993.35 109.177L2023.24 29.5295H1970.22L1949.88 87.7369C1942.48 108.846 1933.54 115.561 1909.19 115.561H1890.7V29.5295H1841.69V253.416Z" fill="#7DE7EB"/>
<path d="M686.618 384.965H678.376C677.68 381.773 676.403 379.063 674.546 376.895C672.688 374.667 670.396 372.98 667.697 371.836C665.056 370.632 662.27 370.029 659.339 370.029C655.218 370.029 651.503 371.113 648.195 373.282C644.857 375.45 642.187 378.642 640.185 382.797C638.241 386.983 637.283 392.132 637.283 398.215C637.283 404.328 638.241 409.477 640.185 413.632C642.187 417.818 644.857 420.98 648.195 423.148C651.503 425.316 655.218 426.4 659.339 426.4C662.27 426.4 665.056 425.858 667.697 424.714C670.396 423.509 672.688 421.823 674.546 419.655C676.403 417.426 677.68 414.656 678.376 411.344H686.618C685.748 416.162 684.006 420.317 681.395 423.75C678.841 427.213 675.619 429.863 671.76 431.7C667.958 433.446 663.808 434.35 659.339 434.35C653.535 434.35 648.369 432.904 643.9 430.013C639.401 427.062 635.832 422.877 633.22 417.487C630.666 412.036 629.389 405.622 629.389 398.215C629.389 390.837 630.666 384.453 633.22 379.063C635.832 373.613 639.401 369.427 643.9 366.536C648.369 363.585 653.535 362.08 659.339 362.08C663.808 362.08 667.958 363.013 671.76 364.85C675.619 366.627 678.841 369.246 681.395 372.679C684.006 376.142 685.748 380.238 686.618 384.965Z" fill="white"/>
<path d="M761.173 384.965H752.931C752.234 381.773 750.957 379.063 749.1 376.895C747.243 374.667 744.95 372.98 742.251 371.836C739.61 370.632 736.824 370.029 733.893 370.029C729.772 370.029 726.058 371.113 722.749 373.282C719.412 375.45 716.742 378.642 714.739 382.797C712.795 386.983 711.837 392.132 711.837 398.215C711.837 404.328 712.795 409.477 714.739 413.632C716.742 417.818 719.412 420.98 722.749 423.148C726.058 425.316 729.772 426.4 733.893 426.4C736.824 426.4 739.61 425.858 742.251 424.714C744.95 423.509 747.243 421.823 749.1 419.655C750.957 417.426 752.234 414.656 752.931 411.344H761.173C760.302 416.162 758.561 420.317 755.949 423.75C753.395 427.213 750.174 429.863 746.314 431.7C742.512 433.446 738.362 434.35 733.893 434.35C728.089 434.35 722.923 432.904 718.454 430.013C713.956 427.062 710.386 422.877 707.774 417.487C705.221 412.036 703.944 405.622 703.944 398.215C703.944 390.837 705.221 384.453 707.774 379.063C710.386 373.613 713.956 369.427 718.454 366.536C722.923 363.585 728.089 362.08 733.893 362.08C738.362 362.08 742.512 363.013 746.314 364.85C750.174 366.627 753.395 369.246 755.949 372.679C758.561 376.142 760.302 380.238 761.173 384.965Z" fill="white"/>
<path d="M777.453 370.632V363.043H828.298V370.632H806.939V433.386H798.697V370.632H777.453Z" fill="white"/>
<path d="M850.569 363.043L870.651 422.305H871.464L891.546 363.043H900.137L875.295 433.386H866.821L841.979 363.043H850.569Z" fill="white"/>
<path d="M987.608 380.629C987.202 377.196 985.577 374.486 982.733 372.559C979.947 370.632 976.493 369.668 972.402 369.668C967.903 369.668 964.276 370.812 961.49 373.041C958.762 375.209 957.427 377.979 957.427 381.352C957.427 383.851 958.152 385.899 959.632 387.495C961.17 389.03 962.941 390.235 964.972 391.108C966.975 391.921 968.832 392.554 970.544 393.035L977.393 394.963C979.163 395.444 981.137 396.137 983.313 397.01C985.461 397.823 987.55 398.937 989.582 400.383C991.584 401.828 993.238 403.695 994.573 405.923C995.879 408.182 996.547 410.952 996.547 414.235C996.547 418.089 995.56 421.552 993.645 424.593C991.7 427.665 988.914 430.104 985.287 431.941C981.63 433.687 977.219 434.591 972.053 434.591C964.682 434.591 958.878 432.844 954.641 429.291C950.375 425.677 948.053 420.98 947.676 415.198H956.15C956.295 417.938 957.137 420.197 958.704 421.943C960.242 423.63 962.186 424.894 964.508 425.677C966.83 426.49 969.325 426.882 972.053 426.882C975.129 426.882 977.915 426.37 980.411 425.316C982.878 424.292 984.851 422.786 986.332 420.859C987.783 418.932 988.537 416.704 988.537 414.114C988.537 411.795 987.899 409.898 986.68 408.453C985.432 407.008 983.778 405.863 981.688 404.96C979.657 403.996 977.451 403.153 975.071 402.43L966.713 400.021C961.374 398.425 957.137 396.167 954.06 393.276C951.042 390.325 949.533 386.471 949.533 381.713C949.533 377.798 950.52 374.366 952.551 371.475C954.641 368.524 957.427 366.235 960.909 364.609C964.392 362.923 968.281 362.08 972.634 362.08C977.045 362.08 980.905 362.893 984.242 364.489C987.637 366.115 990.336 368.313 992.368 371.113C994.37 373.944 995.444 377.106 995.618 380.629H987.608Z" fill="white"/>
<path d="M1016.8 433.386V363.043H1057.66V370.632H1024.92V394.36H1055.57V401.949H1024.92V425.798H1058.24V433.386H1016.8Z" fill="white"/>
<path d="M1133.87 384.965H1125.63C1124.93 381.773 1123.65 379.063 1121.8 376.895C1119.94 374.667 1117.65 372.98 1114.95 371.836C1112.31 370.632 1109.52 370.029 1106.59 370.029C1102.47 370.029 1098.75 371.113 1095.44 373.282C1092.11 375.45 1089.44 378.642 1087.43 382.797C1085.49 386.983 1084.53 392.132 1084.53 398.215C1084.53 404.328 1085.49 409.477 1087.43 413.632C1089.44 417.818 1092.11 420.98 1095.44 423.148C1098.75 425.316 1102.47 426.4 1106.59 426.4C1109.52 426.4 1112.31 425.858 1114.95 424.714C1117.65 423.509 1119.94 421.823 1121.8 419.655C1123.65 417.426 1124.93 414.656 1125.63 411.344H1133.87C1133 416.162 1131.26 420.317 1128.64 423.75C1126.09 427.213 1122.87 429.863 1119.01 431.7C1115.21 433.446 1111.06 434.35 1106.59 434.35C1100.78 434.35 1095.62 432.904 1091.15 430.013C1086.65 427.062 1083.08 422.877 1080.47 417.487C1077.92 412.036 1076.64 405.622 1076.64 398.215C1076.64 390.837 1077.92 384.453 1080.47 379.063C1083.08 373.613 1086.65 369.427 1091.15 366.536C1095.62 363.585 1100.78 362.08 1106.59 362.08C1111.06 362.08 1115.21 363.013 1119.01 364.85C1122.87 366.627 1126.09 369.246 1128.64 372.679C1131.26 376.142 1133 380.238 1133.87 384.965Z" fill="white"/>
<path d="M1198.32 363.043H1206.56V409.657C1206.56 414.897 1205.35 419.384 1202.97 423.148C1200.56 426.852 1197.34 429.712 1193.33 431.7C1189.3 433.627 1184.92 434.591 1180.21 434.591C1175.4 434.591 1170.99 433.627 1166.98 431.7C1163.03 429.712 1159.84 426.852 1157.46 423.148C1155.05 419.384 1153.86 414.897 1153.86 409.657V363.043H1161.99V409.657C1161.99 413.271 1162.83 416.373 1164.54 418.932C1166.23 421.431 1168.43 423.359 1171.16 424.714C1173.95 426.009 1176.96 426.641 1180.21 426.641C1183.38 426.641 1186.37 426.009 1189.15 424.714C1191.94 423.359 1194.14 421.431 1195.77 418.932C1197.45 416.373 1198.32 413.271 1198.32 409.657V363.043Z" fill="white"/>
<path d="M1229.74 433.386V363.043H1252.61C1257.86 363.043 1262.19 363.977 1265.61 365.814C1269.01 367.681 1271.53 370.24 1273.16 373.522C1274.84 376.745 1275.71 380.448 1275.71 384.604C1275.71 389.271 1274.67 393.367 1272.58 396.89C1270.49 400.353 1267.26 402.852 1262.94 404.358L1278.26 433.386H1268.74L1254.47 405.923C1253.92 405.923 1253.33 405.923 1252.73 405.923H1237.87V433.386H1229.74ZM1237.87 398.215H1252.49C1257.89 398.215 1261.78 397.01 1264.1 394.601C1266.42 392.192 1267.58 388.88 1267.58 384.604C1267.58 380.358 1266.42 376.985 1264.1 374.486C1261.78 371.927 1257.86 370.632 1252.38 370.632H1237.87V398.215Z" fill="white"/>
<path d="M1304.22 363.043V433.386H1296.09V363.043H1304.22Z" fill="white"/>
<path d="M1323.79 370.632V363.043H1374.64V370.632H1353.28V433.386H1345.04V370.632H1323.79Z" fill="white"/>
<path d="M1388.32 363.043H1397.72L1416.41 395.926H1417.22L1436.03 363.043H1445.43L1420.94 404.358V433.386H1412.81V404.358L1388.32 363.043Z" fill="white"/>
<path d="M1532.89 380.629C1532.48 377.196 1530.86 374.486 1528.01 372.559C1525.23 370.632 1521.77 369.668 1517.68 369.668C1513.18 369.668 1509.56 370.812 1506.77 373.041C1504.04 375.209 1502.71 377.979 1502.71 381.352C1502.71 383.851 1503.43 385.899 1504.91 387.495C1506.45 389.03 1508.22 390.235 1510.25 391.108C1512.26 391.921 1514.11 392.554 1515.82 393.035L1522.67 394.963C1524.44 395.444 1526.42 396.137 1528.59 397.01C1530.74 397.823 1532.83 398.937 1534.86 400.383C1536.86 401.828 1538.52 403.695 1539.85 405.923C1541.16 408.182 1541.83 410.952 1541.83 414.235C1541.83 418.089 1540.84 421.552 1538.93 424.593C1536.98 427.665 1534.2 430.104 1530.57 431.941C1526.91 433.687 1522.5 434.591 1517.33 434.591C1509.96 434.591 1504.16 432.844 1499.92 429.291C1495.66 425.677 1493.33 420.98 1492.96 415.198H1501.43C1501.58 417.938 1502.42 420.197 1503.98 421.943C1505.52 423.63 1507.47 424.894 1509.79 425.677C1512.11 426.49 1514.61 426.882 1517.33 426.882C1520.41 426.882 1523.2 426.37 1525.69 425.316C1528.16 424.292 1530.13 422.786 1531.61 420.859C1533.06 418.932 1533.82 416.704 1533.82 414.114C1533.82 411.795 1533.18 409.898 1531.96 408.453C1530.71 407.008 1529.06 405.863 1526.97 404.96C1524.94 403.996 1522.73 403.153 1520.35 402.43L1511.99 400.021C1506.65 398.425 1502.42 396.167 1499.34 393.276C1496.32 390.325 1494.81 386.471 1494.81 381.713C1494.81 377.798 1495.8 374.366 1497.83 371.475C1499.92 368.524 1502.71 366.235 1506.19 364.609C1509.67 362.923 1513.56 362.08 1517.91 362.08C1522.33 362.08 1526.19 362.893 1529.52 364.489C1532.92 366.115 1535.62 368.313 1537.65 371.113C1539.65 373.944 1540.72 377.106 1540.9 380.629H1532.89Z" fill="white"/>
<path d="M1562.08 433.386V363.043H1602.94V370.632H1570.2V394.36H1600.85V401.949H1570.2V425.798H1603.52V433.386H1562.08Z" fill="white"/>
<path d="M1624.59 433.386V363.043H1647.46C1652.71 363.043 1657.03 363.977 1660.46 365.814C1663.85 367.681 1666.38 370.24 1668 373.522C1669.69 376.745 1670.56 380.448 1670.56 384.604C1670.56 389.271 1669.51 393.367 1667.42 396.89C1665.33 400.353 1662.11 402.852 1657.79 404.358L1673.11 433.386H1663.59L1649.32 405.923C1648.76 405.923 1648.18 405.923 1647.57 405.923H1632.72V433.386H1624.59ZM1632.72 398.215H1647.34C1652.74 398.215 1656.63 397.01 1658.95 394.601C1661.27 392.192 1662.43 388.88 1662.43 384.604C1662.43 380.358 1661.27 376.985 1658.95 374.486C1656.63 371.927 1652.71 370.632 1647.23 370.632H1632.72V398.215Z" fill="white"/>
<path d="M1693.73 363.043L1713.81 422.305H1714.62L1734.7 363.043H1743.29L1718.45 433.386H1709.98L1685.14 363.043H1693.73Z" fill="white"/>
<path d="M1768.86 363.043V433.386H1760.73V363.043H1768.86Z" fill="white"/>
<path d="M1846.71 384.965H1838.46C1837.77 381.773 1836.49 379.063 1834.63 376.895C1832.78 374.667 1830.48 372.98 1827.78 371.836C1825.14 370.632 1822.36 370.029 1819.43 370.029C1815.31 370.029 1811.59 371.113 1808.28 373.282C1804.94 375.45 1802.27 378.642 1800.27 382.797C1798.33 386.983 1797.37 392.132 1797.37 398.215C1797.37 404.328 1798.33 409.477 1800.27 413.632C1802.27 417.818 1804.94 420.98 1808.28 423.148C1811.59 425.316 1815.31 426.4 1819.43 426.4C1822.36 426.4 1825.14 425.858 1827.78 424.714C1830.48 423.509 1832.78 421.823 1834.63 419.655C1836.49 417.426 1837.77 414.656 1838.46 411.344H1846.71C1845.84 416.162 1844.09 420.317 1841.48 423.75C1838.93 427.213 1835.71 429.863 1831.85 431.7C1828.05 433.446 1823.9 434.35 1819.43 434.35C1813.62 434.35 1808.46 432.904 1803.99 430.013C1799.49 427.062 1795.92 422.877 1793.31 417.487C1790.75 412.036 1789.48 405.622 1789.48 398.215C1789.48 390.837 1790.75 384.453 1793.31 379.063C1795.92 373.613 1799.49 369.427 1803.99 366.536C1808.46 363.585 1813.62 362.08 1819.43 362.08C1823.9 362.08 1828.05 363.013 1831.85 364.85C1835.71 366.627 1838.93 369.246 1841.48 372.679C1844.09 376.142 1845.84 380.238 1846.71 384.965Z" fill="white"/>
<path d="M1866.7 433.386V363.043H1907.56V370.632H1874.83V394.36H1905.47V401.949H1874.83V425.798H1908.14V433.386H1866.7Z" fill="white"/>
<path d="M1966.24 380.629C1965.84 377.196 1964.21 374.486 1961.37 372.559C1958.58 370.632 1955.13 369.668 1951.04 369.668C1946.54 369.668 1942.91 370.812 1940.13 373.041C1937.4 375.209 1936.06 377.979 1936.06 381.352C1936.06 383.851 1936.79 385.899 1938.27 387.495C1939.81 389.03 1941.58 390.235 1943.61 391.108C1945.61 391.921 1947.47 392.554 1949.18 393.035L1956.03 394.963C1957.8 395.444 1959.77 396.137 1961.95 397.01C1964.1 397.823 1966.19 398.937 1968.22 400.383C1970.22 401.828 1971.87 403.695 1973.21 405.923C1974.52 408.182 1975.18 410.952 1975.18 414.235C1975.18 418.089 1974.2 421.552 1972.28 424.593C1970.34 427.665 1967.55 430.104 1963.92 431.941C1960.27 433.687 1955.86 434.591 1950.69 434.591C1943.32 434.591 1937.51 432.844 1933.28 429.291C1929.01 425.677 1926.69 420.98 1926.31 415.198H1934.79C1934.93 417.938 1935.77 420.197 1937.34 421.943C1938.88 423.63 1940.82 424.894 1943.14 425.677C1945.47 426.49 1947.96 426.882 1950.69 426.882C1953.77 426.882 1956.55 426.37 1959.05 425.316C1961.51 424.292 1963.49 422.786 1964.97 420.859C1966.42 418.932 1967.17 416.704 1967.17 414.114C1967.17 411.795 1966.53 409.898 1965.32 408.453C1964.07 407.008 1962.41 405.863 1960.32 404.96C1958.29 403.996 1956.09 403.153 1953.71 402.43L1945.35 400.021C1940.01 398.425 1935.77 396.167 1932.7 393.276C1929.68 390.325 1928.17 386.471 1928.17 381.713C1928.17 377.798 1929.16 374.366 1931.19 371.475C1933.28 368.524 1936.06 366.235 1939.55 364.609C1943.03 362.923 1946.92 362.08 1951.27 362.08C1955.68 362.08 1959.54 362.893 1962.88 364.489C1966.27 366.115 1968.97 368.313 1971 371.113C1973.01 373.944 1974.08 377.106 1974.25 380.629H1966.24Z" fill="white"/>
</svg>

